<?xml version="1.0" encoding="utf-8"?>
<!-- Generator: Adobe Illustrator 22.0.0, SVG Export Plug-In . SVG Version: 6.00 Build 0)  -->
<svg version="1.1" id="Слой_1" xmlns="http://www.w3.org/2000/svg" xmlns:xlink="http://www.w3.org/1999/xlink" x="0px" y="0px"
	 viewBox="0 0 286.3 287.4" style="enable-background:new 0 0 286.3 287.4;" xml:space="preserve">
<style type="text/css">
	.st0{fill:#CE0B0B;}
	.st1{fill:#141414;}
</style>
<g>
	<path class="st0" d="M202.4,167.7c-13.3,0-26.1-3-37.9-9c-1.2-0.6-1.7-2.1-1.1-3.4c0.6-1.2,2.1-1.7,3.4-1.1
		c11.1,5.6,23.1,8.5,35.7,8.5c43.5,0,78.9-35.4,78.9-78.9S245.9,5,202.4,5c-43.5,0-78.9,35.4-78.9,78.9c0,12.6,2.9,24.6,8.5,35.7
		c0.6,1.2,0.1,2.7-1.1,3.4c-1.2,0.6-2.7,0.1-3.4-1.1c-6-11.8-9.1-24.6-9.1-38c0-46.2,37.6-83.9,83.9-83.9s83.9,37.6,83.9,83.9
		S248.7,167.7,202.4,167.7z"/>
	<path class="st1" d="M187.6,106.7c-0.4,0-0.9-0.1-1.3-0.3c-0.8-0.4-1.3-1.3-1.3-2.2V63.1c0-0.9,0.5-1.7,1.3-2.2
		c0.8-0.4,1.7-0.4,2.5,0l35.6,20.5c0.8,0.4,1.3,1.3,1.3,2.2s-0.5,1.7-1.3,2.2l-35.6,20.5C188.4,106.6,188,106.7,187.6,106.7z
		 M190.1,67.5v32.4l28.1-16.2L190.1,67.5z"/>
	<g>
		<path class="st1" d="M200.6,287.4c-9.7,0-17.6-7.9-17.6-17.6s7.9-17.6,17.6-17.6s17.6,7.9,17.6,17.6S210.3,287.4,200.6,287.4z
			 M200.6,257.3c-6.9,0-12.6,5.6-12.6,12.6c0,6.9,5.6,12.6,12.6,12.6s12.6-5.6,12.6-12.6C213.2,262.9,207.5,257.3,200.6,257.3z"/>
		<path class="st1" d="M215.7,272.4c-1.4,0-2.5-1.1-2.5-2.5v-86c0-1.4,1.1-2.5,2.5-2.5s2.5,1.1,2.5,2.5v86
			C218.2,271.2,217.1,272.4,215.7,272.4z"/>
		<path class="st1" d="M268.7,272.5c-9.7,0-17.6-7.9-17.6-17.6s7.9-17.6,17.6-17.6s17.6,7.9,17.6,17.6S278.4,272.5,268.7,272.5z
			 M268.7,242.4c-6.9,0-12.6,5.6-12.6,12.6c0,6.9,5.6,12.6,12.6,12.6c6.9,0,12.6-5.6,12.6-12.6C281.3,248,275.6,242.4,268.7,242.4z"
			/>
		<path class="st1" d="M283.8,257.5c-1.4,0-2.5-1.1-2.5-2.5v-86c0-1.4,1.1-2.5,2.5-2.5s2.5,1.1,2.5,2.5v86
			C286.3,256.3,285.2,257.5,283.8,257.5z"/>
		<path class="st1" d="M215.7,186.4c-1.1,0-2.2-0.8-2.4-2c-0.3-1.3,0.6-2.7,1.9-3l68.1-14.9c1.4-0.3,2.7,0.6,3,1.9
			c0.3,1.3-0.6,2.7-1.9,3l-68.1,14.9C216,186.4,215.9,186.4,215.7,186.4z"/>
		<path class="st1" d="M215.7,211.6c-1.1,0-2.2-0.8-2.4-2c-0.3-1.3,0.6-2.7,1.9-3l68.1-14.9c1.4-0.3,2.7,0.6,3,1.9s-0.6,2.7-1.9,3
			l-68.1,14.9C216,211.6,215.9,211.6,215.7,211.6z"/>
	</g>
	<path class="st1" d="M144,287.4H2.5c-1.4,0-2.5-1.1-2.5-2.5V143.4c0-1.4,1.1-2.5,2.5-2.5H144c1.4,0,2.5,1.1,2.5,2.5v141.5
		C146.5,286.3,145.4,287.4,144,287.4z M5,282.4h136.5V145.9H5V282.4z"/>
	<path class="st1" d="M165.4,265h-20.8c-1.4,0-2.5-1.1-2.5-2.5s1.1-2.5,2.5-2.5h18.3V123.5H26.3v19.4c0,1.4-1.1,2.5-2.5,2.5
		s-2.5-1.1-2.5-2.5V121c0-1.4,1.1-2.5,2.5-2.5h141.5c1.4,0,2.5,1.1,2.5,2.5v141.5C167.9,263.9,166.8,265,165.4,265z"/>
	<g>
		<path class="st0" d="M116.8,248.8H27.6c-1.4,0-2.5-1.1-2.5-2.5V169c0-1.4,1.1-2.5,2.5-2.5h89.2c1.4,0,2.5,1.1,2.5,2.5v77.3
			C119.3,247.7,118.2,248.8,116.8,248.8z M30.1,243.8h84.2v-72.3H30.1V243.8z"/>
		<path class="st0" d="M116.5,242.8c-0.5,0-1-0.2-1.4-0.5l-29.6-21l-12.4,6.8c-1.1,0.6-2.4,0.3-3.2-0.6l-16.7-21.1l-23,33.2
			c-0.8,1.1-2.3,1.4-3.5,0.6c-1.1-0.8-1.4-2.3-0.6-3.5l24.9-36c0.5-0.7,1.2-1.1,2-1.1c0.8,0,1.5,0.3,2,0.9l17.5,22.1l11.9-6.6
			c0.8-0.5,1.9-0.4,2.7,0.2l30.9,21.9c1.1,0.8,1.4,2.4,0.6,3.5C118.1,242.4,117.3,242.8,116.5,242.8z"/>
		<path class="st0" d="M90.7,207.3c-6.4,0-11.7-5.2-11.7-11.7S84.3,184,90.7,184s11.7,5.2,11.7,11.7S97.2,207.3,90.7,207.3z
			 M90.7,189c-3.7,0-6.7,3-6.7,6.7s3,6.7,6.7,6.7s6.7-3,6.7-6.7S94.4,189,90.7,189z"/>
	</g>
	<g>
		<path class="st1" d="M57.9,86.8H2.5c-1.4,0-2.5-1.1-2.5-2.5s1.1-2.5,2.5-2.5h55.4c1.4,0,2.5,1.1,2.5,2.5S59.2,86.8,57.9,86.8z"/>
		<path class="st1" d="M96.7,23.3H2.5c-1.4,0-2.5-1.1-2.5-2.5s1.1-2.5,2.5-2.5h94.2c1.4,0,2.5,1.1,2.5,2.5S98.1,23.3,96.7,23.3z"/>
		<path class="st1" d="M96.7,44.5H2.5C1.1,44.5,0,43.3,0,42s1.1-2.5,2.5-2.5h94.2c1.4,0,2.5,1.1,2.5,2.5S98.1,44.5,96.7,44.5z"/>
		<path class="st1" d="M96.7,65.6H2.5c-1.4,0-2.5-1.1-2.5-2.5s1.1-2.5,2.5-2.5h94.2c1.4,0,2.5,1.1,2.5,2.5S98.1,65.6,96.7,65.6z"/>
	</g>
</g>
</svg>
