<?xml version="1.0" encoding="utf-8"?>
<!-- Generator: Adobe Illustrator 22.0.0, SVG Export Plug-In . SVG Version: 6.00 Build 0)  -->
<svg version="1.1" id="Слой_1" xmlns="http://www.w3.org/2000/svg" xmlns:xlink="http://www.w3.org/1999/xlink" x="0px" y="0px"
	 viewBox="0 0 298.6 276.1" style="enable-background:new 0 0 298.6 276.1;" xml:space="preserve">
<style type="text/css">
	.st0{fill:#CE0B0B;}
	.st1{fill:#141414;}
</style>
<g>
	<path class="st0" d="M220.4,248.3H32.3c-1.4,0-2.5-1.1-2.5-2.5v-92.5c0-1.4,1.1-2.5,2.5-2.5h188.1c1.4,0,2.5,1.1,2.5,2.5v92.5
		C222.9,247.2,221.7,248.3,220.4,248.3z M34.8,243.3h183.1v-87.5H34.8V243.3z"/>
	<path class="st1" d="M97.6,51.6H2.5c-1.4,0-2.5-1.1-2.5-2.5V2.5C0,1.1,1.1,0,2.5,0h95.1c1.4,0,2.5,1.1,2.5,2.5v46.6
		C100.1,50.5,99,51.6,97.6,51.6z M5,46.6h90.1V5H5V46.6z"/>
	<path class="st1" d="M14.9,166.2H2.5c-1.4,0-2.5-1.1-2.5-2.5V68.6c0-1.4,1.1-2.5,2.5-2.5h95.1c1.4,0,2.5,1.1,2.5,2.5v65.9
		c0,1.4-1.1,2.5-2.5,2.5s-2.5-1.1-2.5-2.5V71.1H5v90.1h9.9c1.4,0,2.5,1.1,2.5,2.5S16.2,166.2,14.9,166.2z"/>
	<path class="st1" d="M80.9,89.6H19.2c-1.4,0-2.5-1.1-2.5-2.5s1.1-2.5,2.5-2.5h61.7c1.4,0,2.5,1.1,2.5,2.5S82.3,89.6,80.9,89.6z"/>
	<g>
		<path class="st1" d="M261,136.9H116.5c-1.4,0-2.5-1.1-2.5-2.5V2.5c0-1.4,1.1-2.5,2.5-2.5h179.5c1.4,0,2.5,1.1,2.5,2.5v82.9
			c0,1.4-1.1,2.5-2.5,2.5s-2.5-1.1-2.5-2.5V5H119v126.9h142c1.4,0,2.5,1.1,2.5,2.5S262.4,136.9,261,136.9z"/>
		<path class="st1" d="M295.5,41.8H117.1c-1.4,0-2.5-1.1-2.5-2.5s1.1-2.5,2.5-2.5h178.4c1.4,0,2.5,1.1,2.5,2.5
			S296.9,41.8,295.5,41.8z"/>
		<path class="st1" d="M277.9,23.3H134.7c-1.4,0-2.5-1.1-2.5-2.5s1.1-2.5,2.5-2.5h143.3c1.4,0,2.5,1.1,2.5,2.5
			S279.3,23.3,277.9,23.3z"/>
	</g>
	<path class="st1" d="M260.2,276.1H117.3c-1.4,0-2.5-1.1-2.5-2.5v-13.3c0-1.4,1.1-2.5,2.5-2.5s2.5,1.1,2.5,2.5v10.8h140.4
		c1.4,0,2.5,1.1,2.5,2.5S261.6,276.1,260.2,276.1z"/>
	<g>
		<path class="st0" d="M126.3,202.1c-0.9,0-1.8-0.5-2.2-1.4c-0.6-1.2-0.1-2.7,1.1-3.3l93.5-45.7c1.2-0.6,2.7-0.1,3.3,1.1
			c0.6,1.2,0.1,2.7-1.1,3.3l-93.5,45.7C127.1,202,126.7,202.1,126.3,202.1z"/>
		<path class="st0" d="M126.2,202.1c-0.4,0-0.7-0.1-1.1-0.3l-93.5-45.7c-1.2-0.6-1.8-2.1-1.1-3.3c0.6-1.2,2.1-1.8,3.3-1.1l93.5,45.7
			c1.2,0.6,1.8,2.1,1.1,3.3C128,201.6,127.1,202.1,126.2,202.1z"/>
	</g>
	<path class="st1" d="M296.1,255h-23.3c-1.4,0-2.5-1.1-2.5-2.5V103.7c0-1.4,1.1-2.5,2.5-2.5h23.3c1.4,0,2.5,1.1,2.5,2.5v148.9
		C298.6,253.9,297.4,255,296.1,255z M275.3,250h18.3V106.2h-18.3V250z"/>
	<path class="st1" d="M284.4,276.1c-0.9,0-1.7-0.5-2.2-1.3l-11.6-21.1c-0.7-1.2-0.2-2.7,1-3.4c1.2-0.7,2.7-0.2,3.4,1l11.6,21.1
		c0.7,1.2,0.2,2.7-1,3.4C285.2,276,284.8,276.1,284.4,276.1z"/>
	<path class="st1" d="M284.4,276.1c-0.4,0-0.8-0.1-1.2-0.3c-1.2-0.7-1.6-2.2-1-3.4l11.6-21.1c0.7-1.2,2.2-1.6,3.4-1
		c1.2,0.7,1.6,2.2,1,3.4l-11.6,21.1C286.1,275.6,285.3,276.1,284.4,276.1z"/>
</g>
</svg>
