<?xml version="1.0" encoding="utf-8"?>
<!-- Generator: Adobe Illustrator 22.0.0, SVG Export Plug-In . SVG Version: 6.00 Build 0)  -->
<svg version="1.1" id="Слой_1" xmlns="http://www.w3.org/2000/svg" xmlns:xlink="http://www.w3.org/1999/xlink" x="0px" y="0px"
	 viewBox="0 0 341.2 244.1" style="enable-background:new 0 0 341.2 244.1;" xml:space="preserve">
<style type="text/css">
	.st0{fill:#141414;}
	.st1{fill:#CE0B0B;}
</style>
<g>
	<path class="st0" d="M302.8,244.1c-2,0-3.3-0.1-3.5-0.1c-1.3-0.1-2.4-1.2-2.4-2.5V44.9c0-1.4,1.1-2.5,2.5-2.5
		c10.3-0.2,36.9-3.6,36.9-16.7c0-2.6-1-4.8-2.9-6.7c-9-8.6-34-7.6-34.3-7.6c0,0-0.1,0-0.1,0H101.1c-1.4,0-2.5-1.1-2.5-2.5
		s1.1-2.5,2.5-2.5h197.7c1.8-0.1,27.5-1,37.9,9c3,2.8,4.5,6.3,4.5,10.3V225c0,4-1.5,7.5-4.5,10.3
		C328.4,243.2,310.4,244.1,302.8,244.1z M301.9,239c6.4,0,24.1-0.5,31.4-7.4c2-1.9,3-4.1,3-6.7V36.7c-9,8.4-27.6,10.2-34.4,10.6V239
		z"/>
	<path class="st0" d="M261.7,185.2H134.9c-1.4,0-2.5-1.1-2.5-2.5V139c0-1.4,1.1-2.5,2.5-2.5h126.8c1.4,0,2.5,1.1,2.5,2.5v43.7
		C264.2,184.1,263.1,185.2,261.7,185.2z M137.4,180.2h121.8v-38.7H137.4V180.2z"/>
	<path class="st0" d="M261.7,92h-104c-1.4,0-2.5-1.1-2.5-2.5s1.1-2.5,2.5-2.5h104c1.4,0,2.5,1.1,2.5,2.5S263.1,92,261.7,92z"/>
	<path class="st0" d="M261.7,58.4h-104c-1.4,0-2.5-1.1-2.5-2.5s1.1-2.5,2.5-2.5h104c1.4,0,2.5,1.1,2.5,2.5S263.1,58.4,261.7,58.4z"
		/>
	<g>
		<g>
			<path class="st1" d="M73.5,31.6c-1.4,0-2.5-1.1-2.5-2.5V2.5C71,1.1,72.1,0,73.5,0S76,1.1,76,2.5v26.6
				C76,30.5,74.9,31.6,73.5,31.6z"/>
			<path class="st1" d="M125.7,49.2c-0.6,0-1.3-0.2-1.8-0.7c-1-1-1-2.6,0-3.5l18.8-18.8c1-1,2.6-1,3.5,0c1,1,1,2.6,0,3.5l-18.8,18.8
				C126.9,49,126.3,49.2,125.7,49.2z"/>
			<path class="st1" d="M21.3,49.2c-0.6,0-1.3-0.2-1.8-0.7L0.7,29.7c-1-1-1-2.6,0-3.5c1-1,2.6-1,3.5,0l18.8,18.8c1,1,1,2.6,0,3.5
				C22.6,49,21.9,49.2,21.3,49.2z"/>
		</g>
		<path class="st1" d="M94.7,158.4H52.2c-3.3,0-6-2.7-6-6v-9.4c0-3.9-1.7-6.2-2.1-6.7c-13.7-9.6-21.8-25.2-21.8-41.9
			c0-28.2,22.9-51.1,51.1-51.1s51.1,22.9,51.1,51.1c0,16.7-8.1,32.3-21.8,41.9c-0.5,0.6-2.1,2.9-2.1,6.7v9.4
			C100.7,155.7,98,158.4,94.7,158.4z M73.5,153.4h21.2c0.5,0,1-0.4,1-1v-9.4c0-6.1,3-9.6,3.6-10.3c0.1-0.1,0.2-0.2,0.3-0.3
			c0.1-0.1,0.1-0.1,0.2-0.2c12.4-8.6,19.9-22.8,19.9-37.9c0-25.4-20.7-46.1-46.1-46.1S27.3,69,27.3,94.4c0,15.1,7.4,29.3,19.9,37.9
			c0.1,0.1,0.2,0.1,0.2,0.2c0.1,0.1,0.2,0.2,0.3,0.3c0.6,0.6,3.6,4.2,3.6,10.3v9.4c0,0.5,0.4,1,1,1H73.5z"/>
		<path class="st1" d="M95.3,173.2H51.6c-1.4,0-2.5-1.1-2.5-2.5s1.1-2.5,2.5-2.5h43.7c1.4,0,2.5,1.1,2.5,2.5S96.7,173.2,95.3,173.2z
			"/>
		<path class="st1" d="M87.3,185.6H59.7c-1.4,0-2.5-1.1-2.5-2.5s1.1-2.5,2.5-2.5h27.6c1.4,0,2.5,1.1,2.5,2.5S88.7,185.6,87.3,185.6z
			"/>
	</g>
	<path class="st0" d="M299,224.7H73.5c-1.4,0-2.5-1.1-2.5-2.5v-24.2c0-1.4,1.1-2.5,2.5-2.5s2.5,1.1,2.5,2.5v21.7H299
		c1.4,0,2.5,1.1,2.5,2.5S300.4,224.7,299,224.7z"/>
</g>
</svg>
