<?xml version="1.0" encoding="utf-8"?>
<!-- Generator: Adobe Illustrator 22.0.0, SVG Export Plug-In . SVG Version: 6.00 Build 0)  -->
<svg version="1.1" id="Слой_1" xmlns="http://www.w3.org/2000/svg" xmlns:xlink="http://www.w3.org/1999/xlink" x="0px" y="0px"
	 viewBox="0 0 319 267.3" style="enable-background:new 0 0 319 267.3;" xml:space="preserve">
<style type="text/css">
	.st0{fill:#141414;}
	.st1{fill:#CE0B0B;}
</style>
<g>
	<path class="st0" d="M303.6,267.3H63.9c-8.5,0-15.4-6.9-15.4-15.4v-16.2c0-1.4,1.1-2.5,2.5-2.5s2.5,1.1,2.5,2.5v16.2
		c0,5.7,4.7,10.4,10.4,10.4h239.7c5.7,0,10.4-4.7,10.4-10.4V15.4C314,9.7,309.3,5,303.6,5H63.9c-5.7,0-10.4,4.7-10.4,10.4V154
		c0,1.4-1.1,2.5-2.5,2.5s-2.5-1.1-2.5-2.5V15.4C48.5,6.9,55.4,0,63.9,0h239.7c8.5,0,15.4,6.9,15.4,15.4v236.5
		C319,260.4,312.1,267.3,303.6,267.3z"/>
	<path class="st0" d="M273.8,124.9h-131c-1.4,0-2.5-1.1-2.5-2.5s1.1-2.5,2.5-2.5h131c5.7,0,10.4-4.7,10.4-10.4V84
		c0-5.7-4.7-10.4-10.4-10.4H93.7c-5.7,0-10.4,4.7-10.4,10.4v25.5c0,1,0.1,2,0.4,2.9c0.4,1.3-0.4,2.7-1.7,3.1
		c-1.3,0.4-2.7-0.4-3.1-1.7c-0.4-1.4-0.6-2.8-0.6-4.3V84c0-8.5,6.9-15.4,15.4-15.4h180.2c8.5,0,15.4,6.9,15.4,15.4v25.5
		C289.3,117.9,282.3,124.9,273.8,124.9z"/>
	<path class="st0" d="M316.2,55.1H51.3c-1.4,0-2.5-1.1-2.5-2.5s1.1-2.5,2.5-2.5h264.8c1.4,0,2.5,1.1,2.5,2.5S317.5,55.1,316.2,55.1z
		"/>
	<g>
		<path class="st0" d="M81.5,35.5h-1c-3.6,0-6.6-3-6.6-6.6v-1c0-3.6,3-6.6,6.6-6.6h1c3.6,0,6.6,3,6.6,6.6v1
			C88.1,32.5,85.1,35.5,81.5,35.5z"/>
		<path class="st0" d="M113,35.5h-1c-3.6,0-6.6-3-6.6-6.6v-1c0-3.6,3-6.6,6.6-6.6h1c3.6,0,6.6,3,6.6,6.6v1
			C119.6,32.5,116.6,35.5,113,35.5z"/>
		<path class="st0" d="M144.6,35.5h-1c-3.6,0-6.6-3-6.6-6.6v-1c0-3.6,3-6.6,6.6-6.6h1c3.6,0,6.6,3,6.6,6.6v1
			C151.2,32.5,148.2,35.5,144.6,35.5z"/>
	</g>
	<g>
		<g>
			<path class="st0" d="M288.3,165.6h-88.7c-1.4,0-2.5-1.1-2.5-2.5s1.1-2.5,2.5-2.5h88.7c1.4,0,2.5,1.1,2.5,2.5
				S289.7,165.6,288.3,165.6z"/>
			<path class="st0" d="M288.3,197.4h-88.7c-1.4,0-2.5-1.1-2.5-2.5s1.1-2.5,2.5-2.5h88.7c1.4,0,2.5,1.1,2.5,2.5
				S289.7,197.4,288.3,197.4z"/>
			<path class="st0" d="M288.3,229.2h-88.7c-1.4,0-2.5-1.1-2.5-2.5s1.1-2.5,2.5-2.5h88.7c1.4,0,2.5,1.1,2.5,2.5
				S289.7,229.2,288.3,229.2z"/>
		</g>
		<g>
			<path class="st0" d="M167.8,165.6h-25c-1.4,0-2.5-1.1-2.5-2.5s1.1-2.5,2.5-2.5h25c1.4,0,2.5,1.1,2.5,2.5S169.2,165.6,167.8,165.6
				z"/>
			<path class="st0" d="M167.8,197.4h-67.4c-1.4,0-2.5-1.1-2.5-2.5s1.1-2.5,2.5-2.5h67.4c1.4,0,2.5,1.1,2.5,2.5
				S169.2,197.4,167.8,197.4z"/>
			<path class="st0" d="M167.8,229.2H79.2c-1.4,0-2.5-1.1-2.5-2.5s1.1-2.5,2.5-2.5h88.7c1.4,0,2.5,1.1,2.5,2.5
				S169.2,229.2,167.8,229.2z"/>
		</g>
	</g>
	<g>
		<path class="st1" d="M18.1,242.9c-5.8,0-10-2.6-12.8-5.4l0,0l0,0C1.8,233.9,0,229.7,0,225c0-12.9,13.4-26.2,20.6-33.4l0.8-0.8
			c4.8-4.8,17.7-14.1,30.2-23c9.6-6.9,18.7-13.4,21.2-15.9c5.2-5.2,7.4-13.6,7.5-13.7c0-0.1,0-0.1,0.1-0.2c0-4.5,1.3-10.2,6.3-15.2
			c10-10,41.6-13,44.4-13.3c0.2,0,0.4,0,0.6,0c1.4,0.1,2.4,1.3,2.3,2.7c-0.1,1.4-3,34.3-13.3,44.6c-5,5-10.7,6.3-15.2,6.3
			c-0.1,0-0.2,0.1-0.2,0.1c-0.1,0-8.4,2.3-13.6,7.5c-2.5,2.5-9,11.6-15.9,21.2c-9,12.5-18.2,25.4-23,30.2
			c-3.8,3.8-11.7,11.7-20.4,16.5C26.7,241.7,22.1,242.9,18.1,242.9z M8.9,233.9c5.2,5.2,12,5.3,20.9,0.3
			c8.1-4.5,15.6-12.1,19.3-15.7c4.5-4.5,14.1-17.8,22.5-29.6c7.3-10.2,13.7-19.1,16.4-21.8c2.5-2.5,5.6-4.4,8.3-5.8
			c-3.2-1.3-6.2-3.1-8.5-5.4c-0.1,0-0.1-0.1-0.1-0.1c-2.3-2.3-4.3-5.4-5.5-8.6c-1.4,2.8-3.3,5.8-5.8,8.3
			c-2.8,2.8-11.6,9.1-21.8,16.4c-11.8,8.4-25.1,18-29.6,22.5l-0.8,0.8C17.9,201.4,5,214.2,5,225C5,228.4,6.3,231.3,8.9,233.9
			L8.9,233.9z M91.1,152.1c0,0,0.1,0.1,0.1,0.1c3,3,7.5,5.2,11.9,5.7c3.7,0.5,9.2,0.1,14-4.7c6.7-6.7,10.3-27.8,11.5-38.5
			c-10.6,1.2-31.7,4.8-38.5,11.5c-4.8,4.8-5.2,10.2-4.7,14C86.1,144.6,88.2,149.1,91.1,152.1z"/>
		<path class="st1" d="M76.1,189c-0.6,0-1.3-0.2-1.8-0.7l-18.8-18.8c-1-1-1-2.6,0-3.5c1-1,2.6-1,3.5,0l18.8,18.8c1,1,1,2.6,0,3.5
			C77.4,188.8,76.7,189,76.1,189z"/>
		<path class="st1" d="M81.2,181.5c-0.6,0-1.3-0.2-1.8-0.7L63,164.4c-1-1-1-2.6,0-3.5c1-1,2.6-1,3.5,0L83,177.3c1,1,1,2.6,0,3.5
			C82.5,181.3,81.8,181.5,81.2,181.5z"/>
	</g>
</g>
</svg>
