<?xml version="1.0" encoding="utf-8"?>
<!-- Generator: Adobe Illustrator 22.0.0, SVG Export Plug-In . SVG Version: 6.00 Build 0)  -->
<svg version="1.1" id="Слой_1" xmlns="http://www.w3.org/2000/svg" xmlns:xlink="http://www.w3.org/1999/xlink" x="0px" y="0px"
	 viewBox="0 0 286.9 279.4" style="enable-background:new 0 0 286.9 279.4;" xml:space="preserve">
<style type="text/css">
	.st0{fill:#141414;}
	.st1{fill:#CE0B0B;}
</style>
<g>
	<path class="st0" d="M284.4,203h-40.3c-1.4,0-2.5-1.1-2.5-2.5s1.1-2.5,2.5-2.5h37.8V5H5v193h76.3c1.4,0,2.5,1.1,2.5,2.5
		s-1.1,2.5-2.5,2.5H2.5c-1.4,0-2.5-1.1-2.5-2.5V2.5C0,1.1,1.1,0,2.5,0h281.9c1.4,0,2.5,1.1,2.5,2.5v198
		C286.9,201.8,285.8,203,284.4,203z"/>
	<path class="st1" d="M200.9,158.8H173c-1.4,0-2.5-1.1-2.5-2.5s1.1-2.5,2.5-2.5h25.4V49.1H88.6v104.7h25.4c1.4,0,2.5,1.1,2.5,2.5
		s-1.1,2.5-2.5,2.5H86.1c-1.4,0-2.5-1.1-2.5-2.5V46.6c0-1.4,1.1-2.5,2.5-2.5h114.8c1.4,0,2.5,1.1,2.5,2.5v109.7
		C203.4,157.7,202.3,158.8,200.9,158.8z"/>
	<g>
		<path class="st0" d="M229,124.9c-0.6,0-1.3-0.2-1.8-0.7c-1-1-1-2.6,0-3.5l19.3-19.3l-19-19c-1-1-1-2.6,0-3.5c1-1,2.6-1,3.5,0
			l20.8,20.8c0.5,0.5,0.7,1.1,0.7,1.8s-0.3,1.3-0.7,1.8l-21.1,21.1C230.3,124.7,229.7,124.9,229,124.9z"/>
		<path class="st0" d="M62.3,124.9c-0.6,0-1.3-0.2-1.8-0.7l-20.8-20.8c-1-1-1-2.6,0-3.5l21.1-21.1c1-1,2.6-1,3.5,0c1,1,1,2.6,0,3.5
			l-19.3,19.3l19,19c1,1,1,2.6,0,3.5C63.6,124.7,63,124.9,62.3,124.9z"/>
	</g>
	<path class="st0" d="M181.2,279.4c-4.1,0-8.2,0-12.2-0.1c-2.8,0-5.5,0-8.3,0c-1.9,0-3.8-0.3-5.1-0.6c-4.9-0.9-9.7-2.8-14.8-5.9
		c-3.2-1.9-6.8-4.3-9.8-7.6c-11.4-12.7-22.9-25.7-33.1-37.2c-4.1-4.6-5.5-10-4.2-15.8c1.6-7,6.1-11.7,13-13.4
		c6.8-1.7,12.9,0.2,17.8,5.5c0.3,0.4,0.7,0.7,1,1.1l0-34.4c0-2.7,0-5.4,0-8.1c0-6.7,0-13.7,0-20.5c0.1-7.9,5.3-14.6,13-16.8
		c0.7-0.2,1.3-0.3,1.9-0.5c0.3-0.1,0.5-0.1,0.8-0.2c0.2,0,0.4-0.1,0.5-0.1h3c0.3,0,0.6,0,0.8,0.1c0,0,0.1,0,0.1,0
		c8.9,1.1,15.6,8.8,15.5,18.1c-0.1,7.5,0,15.2,0,22.6c0,3,0,6,0,9c3.7-1.2,7.5-1.1,11.2,0.2c4.1,1.4,7.3,4.1,9.6,7.9
		c4.7-2.1,9.5-2.1,14.2,0c4.6,2,7.8,5.4,9.6,10c3.3-1.2,6.7-1.4,10.2-0.6c8.2,2,13.7,9.1,13.7,17.8c0,12.4,0,24.7,0,37.1
		c0,6.8-2.1,13-6.3,18.3c-7,8.9-16.4,13.6-28.1,13.8C190.7,279.3,185.9,279.4,181.2,279.4z M111.5,203.2c-1.1,0-2.3,0.2-3.6,0.5
		c-5,1.3-8.2,4.6-9.4,9.7c-1,4.2,0.1,8,3.1,11.4c10.2,11.5,21.7,24.5,33.1,37.2c2.5,2.8,5.8,4.9,8.6,6.6c4.6,2.7,8.9,4.4,13.2,5.2
		c1.7,0.3,3,0.5,4.2,0.5c2.8,0,5.5,0,8.3,0c8.6,0.1,17.6,0.1,26.3-0.1c10.1-0.2,18.2-4.2,24.2-11.9c3.4-4.4,5.2-9.5,5.2-15.2
		c0-12.3,0-24.7,0-37c0-6.4-3.9-11.5-9.9-12.9c-3.1-0.7-5.9-0.4-8.8,1.1l-0.6,0.3c-0.7,0.4-1.5,0.4-2.2,0.1c-0.7-0.3-1.2-1-1.4-1.7
		c-1.1-4.6-3.6-7.7-7.6-9.5c-4-1.7-8-1.4-12.1,1c-0.6,0.4-1.4,0.4-2,0.2c-0.7-0.2-1.2-0.7-1.5-1.4c-1.6-3.8-4.2-6.2-7.8-7.5
		c-3.6-1.3-7.2-0.9-10.8,1.1c-0.8,0.4-1.7,0.4-2.5,0c-0.8-0.5-1.2-1.3-1.2-2.2v-3.1c0-3.3,0-6.5,0-9.8c0-7.4,0-15.1,0-22.7
		c0.1-7.8-5.8-12.6-11.3-13.1c-0.2,0-0.4-0.1-0.5-0.1h-2.3c-0.2,0-0.4,0.1-0.6,0.1c-0.5,0.1-1.1,0.2-1.6,0.4
		c-5.5,1.6-9.3,6.4-9.3,12c-0.1,6.8-0.1,13.7,0,20.4c0,2.7,0,5.4,0,8.1l0,40.1c0,0.2,0,0.4,0,0.6l0,0.2c0,0.7-0.4,1.4-0.9,1.8
		l-0.3,0.2c-0.6,0.5-1.3,0.7-2.1,0.5c-0.7-0.2-1.4-0.6-1.7-1.3c0-0.1-0.1-0.2-0.1-0.3l-0.9-1c-1.2-1.4-2.4-2.8-3.6-4.1
		C118.1,204.7,115,203.2,111.5,203.2z M125.6,213C125.6,213,125.6,213,125.6,213L125.6,213z M145.5,125
		C145.5,125,145.5,125,145.5,125C145.5,125,145.5,125,145.5,125z"/>
</g>
</svg>
