<?xml version="1.0" encoding="utf-8"?>
<!-- Generator: Adobe Illustrator 22.0.0, SVG Export Plug-In . SVG Version: 6.00 Build 0)  -->
<svg version="1.1" id="Слой_1" xmlns="http://www.w3.org/2000/svg" xmlns:xlink="http://www.w3.org/1999/xlink" x="0px" y="0px"
	 viewBox="0 0 389.5 395.7" style="enable-background:new 0 0 389.5 395.7;" xml:space="preserve">
<style type="text/css">
	.st0{fill:#141414;}
	.st1{fill:#CE0B0B;}
</style>
<g>
	<path class="st0" d="M194.3,268.4c-39.5,0-71.6-32.1-71.6-71.6c0-39.5,32.1-71.6,71.6-71.6s71.6,32.1,71.6,71.6
		C265.8,236.3,233.7,268.4,194.3,268.4z M194.3,130.3c-36.7,0-66.6,29.9-66.6,66.6c0,36.7,29.9,66.6,66.6,66.6s66.6-29.9,66.6-66.6
		C260.8,160.2,231,130.3,194.3,130.3z"/>
	<path class="st0" d="M150.6,199.4c-1.4,0-2.5-1.1-2.5-2.5c0-25.5,20.7-46.2,46.2-46.2c1.4,0,2.5,1.1,2.5,2.5s-1.1,2.5-2.5,2.5
		c-22.7,0-41.2,18.5-41.2,41.2C153.1,198.2,152,199.4,150.6,199.4z"/>
	<path class="st0" d="M195.2,308.6c-0.3,0-0.6,0-0.9,0c0,0-0.1,0-0.1,0c-57.8-0.3-107.3-29.9-138.6-54.7c-33.5-26.4-54-53.3-55-54.5
		c-0.1-0.1-0.2-0.3-0.3-0.4c-0.2-0.4-0.3-0.7-0.3-1.1c0,0,0,0,0,0s0,0,0,0c0-0.4,0.1-0.8,0.3-1.1c0.1-0.1,0.2-0.3,0.3-0.4
		c1-1.3,21.5-28.1,55-54.5c31.4-24.8,80.8-54.3,138.6-54.7c0.2,0,0.4,0,0.6,0c0.2,0,0.4,0,0.6,0c57.8,0.3,107.3,29.9,138.6,54.7
		c33.4,26.4,53.9,53.2,55,54.5c0.1,0.2,0.2,0.3,0.3,0.5c0.2,0.3,0.2,0.7,0.2,1c0,0.4-0.1,0.8-0.3,1.2c-0.1,0.1-0.2,0.3-0.3,0.4
		c-1,1.3-21.5,28.1-55,54.5c-31.4,24.8-80.8,54.3-138.6,54.7C195.3,308.6,195.2,308.6,195.2,308.6z M5.7,197.9
		c4.8,6,24,29.3,53.1,52.3c30.8,24.3,79.4,53.4,136,53.5c56.6-0.2,105.2-29.2,136.1-53.6c29.1-23,48.2-46.1,53-52.2
		c-4.8-6-24-29.3-53.1-52.3c-30.8-24.3-79.4-53.4-136-53.5c-56.6,0.2-105.2,29.2-136,53.5C29.6,168.6,10.5,191.8,5.7,197.9z"/>
	<path class="st1" d="M377.7,120.3c-0.8,0-1.6-0.4-2.1-1.1L347,76.9c-7.7,7.9-19.7,10.1-29.8,5c-12.6-6.3-17.6-21.7-11.3-34.3
		c0.9-1.8,2-3.5,3.3-5l-40.9-24.2c-3.3,10.5-13,17.8-24.3,17.8c-14.1,0-25.5-11.4-25.5-25.5c0-1.9,0.2-3.9,0.6-5.7l-24.4,0l-24.4,0
		c0.4,1.9,0.6,3.8,0.6,5.7c0,14.1-11.4,25.5-25.5,25.5c-11.3,0-21-7.3-24.3-17.8L80.2,42.7c1.3,1.5,2.4,3.2,3.3,5
		c3.1,6.1,3.6,13,1.5,19.5c-2.1,6.5-6.7,11.7-12.7,14.8c-10.1,5.1-22.1,2.9-29.8-5l-28.6,42.2c-0.8,1.1-2.3,1.4-3.5,0.7
		c-1.1-0.8-1.4-2.3-0.7-3.5l30.4-44.9c0.1-0.1,0.2-0.3,0.3-0.4c0.2-0.2,0.4-0.4,0.7-0.5c0.3-0.2,0.7-0.3,1.1-0.3
		c0.4,0,0.7,0.1,1.1,0.2c0.3,0.1,0.5,0.3,0.7,0.5c0.1,0.1,0.2,0.2,0.3,0.4C50.2,79.4,61,82,70,77.5c4.9-2.5,8.5-6.7,10.2-11.9
		c1.7-5.2,1.3-10.8-1.2-15.7c-1.1-2.2-2.6-4.2-4.4-5.8c-0.2-0.2-0.5-0.4-0.6-0.7c-0.7-1.2-0.3-2.7,0.9-3.4l46.5-27.5
		c0.1-0.1,0.3-0.2,0.5-0.2c0.3-0.1,0.6-0.1,0.9-0.2c0.4,0,0.7,0.1,1,0.2c0.3,0.2,0.6,0.4,0.9,0.7c0.2,0.2,0.3,0.5,0.4,0.7
		c0.1,0.2,0.1,0.3,0.1,0.5c1.7,9.9,10.2,17,20.2,17c11.3,0,20.5-9.2,20.5-20.5c0-2.5-0.4-5-1.3-7.3c-0.1-0.2-0.1-0.3-0.1-0.5
		c-0.1-0.3-0.1-0.6,0-0.9c0.1-0.4,0.2-0.7,0.4-1c0.2-0.3,0.5-0.5,0.8-0.7c0.2-0.1,0.5-0.3,0.8-0.3c0.2,0,0.3,0,0.5,0h55.5
		c0.2,0,0.3,0,0.5,0c0.3,0.1,0.6,0.2,0.8,0.3c0.3,0.2,0.6,0.4,0.8,0.7c0.2,0.3,0.3,0.6,0.4,1c0,0.3,0,0.6,0,0.9
		c0,0.2-0.1,0.3-0.1,0.5c-0.9,2.3-1.3,4.8-1.3,7.3c0,11.3,9.2,20.5,20.5,20.5c10,0,18.5-7.2,20.2-17c0-0.2,0.1-0.3,0.1-0.5
		c0.1-0.3,0.2-0.5,0.4-0.7c0.2-0.3,0.5-0.5,0.9-0.7c0.3-0.2,0.7-0.2,1.1-0.2c0,0,0,0,0,0c0.3,0,0.6,0,0.9,0.2
		c0.2,0.1,0.3,0.1,0.5,0.2L314.5,40c1.2,0.7,1.6,2.2,0.9,3.4c-0.2,0.3-0.4,0.5-0.6,0.7c-1.8,1.7-3.3,3.6-4.4,5.8
		c-5.1,10.1-1,22.5,9.1,27.5c9,4.5,19.8,2,25.7-6.1c0.1-0.1,0.2-0.3,0.3-0.4c0.2-0.2,0.5-0.4,0.7-0.5c0.3-0.2,0.7-0.2,1.1-0.2
		c0.4,0,0.7,0.1,1.1,0.3c0.3,0.1,0.5,0.3,0.7,0.5c0.1,0.1,0.2,0.2,0.3,0.4l30.4,44.9c0.8,1.1,0.5,2.7-0.7,3.5
		C378.6,120.1,378.1,120.3,377.7,120.3z"/>
	<circle class="st0" cx="194.7" cy="48.2" r="6"/>
	<circle class="st0" cx="269" cy="66.3" r="6"/>
	<circle class="st0" cx="120.4" cy="66.3" r="6"/>
	<path class="st1" d="M222.5,395.7C222.5,395.7,222.5,395.7,222.5,395.7l-27.8,0l-27.7,0c-0.2,0-0.3,0-0.5,0
		c-0.3-0.1-0.6-0.2-0.8-0.3c-0.3-0.2-0.6-0.4-0.8-0.7c-0.2-0.3-0.3-0.6-0.4-1c0-0.3,0-0.6,0-0.9c0-0.2,0.1-0.3,0.1-0.5
		c0.9-2.3,1.3-4.8,1.3-7.3c0-11.3-9.2-20.5-20.5-20.5c-10,0-18.5,7.2-20.2,17c0,0.2-0.1,0.3-0.1,0.5c-0.1,0.3-0.2,0.5-0.4,0.7
		c-0.2,0.3-0.5,0.5-0.9,0.7c-0.3,0.2-0.7,0.2-1.1,0.2c-0.3,0-0.6-0.1-0.9-0.2c-0.2-0.1-0.3-0.1-0.5-0.2l-46.5-27.5
		c-1.2-0.7-1.6-2.2-0.9-3.4c0.2-0.3,0.4-0.5,0.6-0.7c1.8-1.7,3.3-3.6,4.4-5.8c2.5-4.9,2.9-10.5,1.2-15.7c-1.7-5.2-5.4-9.4-10.2-11.9
		c-9-4.5-19.8-2-25.7,6.1c-0.1,0.1-0.2,0.3-0.3,0.4c-0.2,0.2-0.5,0.4-0.7,0.5c-0.3,0.2-0.7,0.2-1.1,0.2c-0.4,0-0.7-0.1-1.1-0.3
		c-0.3-0.1-0.5-0.3-0.7-0.5c-0.1-0.1-0.2-0.2-0.3-0.4L9.7,279.3c-0.8-1.1-0.5-2.7,0.7-3.5c1.1-0.8,2.7-0.5,3.5,0.7l28.6,42.3
		c7.7-7.9,19.7-10.1,29.8-5c6.1,3.1,10.6,8.3,12.7,14.8c2.1,6.5,1.6,13.4-1.5,19.5c-0.9,1.8-2,3.5-3.3,5l40.9,24.2
		c3.3-10.5,13-17.8,24.3-17.8c14.1,0,25.5,11.4,25.5,25.5c0,1.9-0.2,3.9-0.6,5.7h48.9c-0.4-1.9-0.6-3.8-0.6-5.7
		c0-14.1,11.4-25.5,25.5-25.5c11.3,0,21,7.3,24.3,17.8l40.9-24.2c-1.3-1.5-2.4-3.2-3.3-5c-6.3-12.6-1.3-27.9,11.3-34.3
		c10.1-5.1,22.1-2.9,29.8,5l28.6-42.3c0.8-1.1,2.3-1.4,3.5-0.7c1.1,0.8,1.4,2.3,0.7,3.5l-30.4,44.9c-0.1,0.1-0.2,0.3-0.3,0.4
		c-0.2,0.2-0.4,0.4-0.7,0.5c-0.3,0.2-0.7,0.3-1.1,0.3c-0.4,0-0.7-0.1-1.1-0.2c-0.3-0.1-0.5-0.3-0.7-0.5c-0.1-0.1-0.2-0.2-0.3-0.4
		c-5.9-8.1-16.8-10.6-25.7-6.1c-4.9,2.5-8.5,6.7-10.2,11.9s-1.3,10.8,1.2,15.7c1.1,2.2,2.6,4.2,4.4,5.8c0.2,0.2,0.5,0.4,0.6,0.7
		c0.7,1.2,0.3,2.7-0.9,3.4L268,383.3c-0.1,0.1-0.3,0.2-0.5,0.2c-0.3,0.1-0.6,0.2-0.9,0.1c-0.4,0-0.7-0.1-1.1-0.2
		c-0.3-0.1-0.6-0.4-0.8-0.6c-0.2-0.2-0.3-0.5-0.4-0.8c-0.1-0.2-0.1-0.3-0.1-0.5c-1.7-9.9-10.2-17-20.2-17
		c-11.3,0-20.5,9.2-20.5,20.5c0,2.5,0.4,5,1.3,7.3c0.1,0.2,0.1,0.3,0.1,0.5c0.1,0.3,0.1,0.6,0,0.9c-0.1,0.4-0.2,0.7-0.4,1
		c-0.2,0.3-0.5,0.5-0.8,0.7c-0.2,0.1-0.5,0.3-0.8,0.3C222.8,395.7,222.7,395.7,222.5,395.7z"/>
	<circle class="st0" cx="194.7" cy="347.5" r="6"/>
	<circle class="st0" cx="269" cy="329.4" r="6"/>
	<circle class="st0" cx="120.4" cy="329.4" r="6"/>
	<path class="st0" d="M194.7,308.6C133.6,308.6,84,258.9,84,197.9S133.6,87.1,194.7,87.1s110.8,49.7,110.8,110.8
		S255.8,308.6,194.7,308.6z M194.7,92.1C136.4,92.1,89,139.5,89,197.9s47.4,105.8,105.8,105.8c58.3,0,105.8-47.4,105.8-105.8
		S253,92.1,194.7,92.1z"/>
</g>
</svg>
