<?xml version="1.0" encoding="utf-8"?>
<!-- Generator: Adobe Illustrator 22.0.0, SVG Export Plug-In . SVG Version: 6.00 Build 0)  -->
<svg version="1.1" id="Слой_2_1_" xmlns="http://www.w3.org/2000/svg" xmlns:xlink="http://www.w3.org/1999/xlink" x="0px"
	 y="0px" viewBox="0 0 73.4 73.4" style="enable-background:new 0 0 73.4 73.4;" xml:space="preserve">
<style type="text/css">
	.st0{fill:#F54243;}
</style>
<title>V Podval</title>
<path class="st0" d="M36.7,0C16.4,0,0,16.4,0,36.7s16.4,36.7,36.7,36.7c20.2,0,36.6-16.4,36.7-36.6C73.3,16.5,56.9,0.1,36.7,0z
	 M36.7,66C20.5,66,7.3,52.9,7.3,36.7S20.4,7.3,36.7,7.3C52.9,7.3,66,20.4,66,36.7c0,0,0,0,0,0.1C65.9,52.9,52.8,66,36.7,66z"/>
<polygon class="st0" points="38.5,18.4 33,18.4 33,40.4 52.1,52.1 55,47.3 38.5,37.4 "/>
</svg>
