<?xml version="1.0" encoding="utf-8"?>
<!-- Generator: Adobe Illustrator 22.0.0, SVG Export Plug-In . SVG Version: 6.00 Build 0)  -->
<svg version="1.1" id="Слой_1" xmlns="http://www.w3.org/2000/svg" xmlns:xlink="http://www.w3.org/1999/xlink" x="0px" y="0px"
	 viewBox="0 0 1584.7 263.1" style="enable-background:new 0 0 1584.7 263.1;" xml:space="preserve">
<style type="text/css">
	.st0{fill:#757575;}
	.st1{fill:#333333;}
	.st2{fill:#C1C1C1;}
	.st3{fill:#F54243;}
	.st4{fill:#AD1734;}
	.st5{fill:#FFFFFF;}
</style>
<g>
	<path class="st0" d="M321.9,126.8h-12.9v46.6h-18.8V64.6h18.8v45.7h10.4l32-45.7h23.2l-37.4,52.1l40.6,56.7h-22.7L321.9,126.8z"/>
	<path class="st0" d="M381.2,132.2c0-7.9,1.6-15.1,4.7-21.4c3.1-6.4,7.5-11.2,13.2-14.6c5.7-3.4,12.2-5.1,19.6-5.1
		c10.9,0,19.8,3.5,26.6,10.5c6.8,7,10.5,16.3,11,27.9l0.1,4.3c0,8-1.5,15.1-4.6,21.4c-3.1,6.3-7.4,11.1-13.2,14.6
		c-5.7,3.4-12.3,5.2-19.8,5.2c-11.4,0-20.5-3.8-27.4-11.4c-6.8-7.6-10.3-17.7-10.3-30.4V132.2z M399.3,133.8
		c0,8.3,1.7,14.8,5.2,19.5c3.4,4.7,8.2,7.1,14.3,7.1c6.1,0,10.9-2.4,14.3-7.2c3.4-4.8,5.1-11.8,5.1-21c0-8.2-1.8-14.6-5.3-19.4
		c-3.5-4.8-8.3-7.2-14.3-7.2c-5.9,0-10.6,2.4-14.1,7.1C401.1,117.4,399.3,124.4,399.3,133.8z"/>
	<path class="st0" d="M519.7,151.1l23.9-58.5h22.7v80.8h-18.2v-53.5l-22.3,53.5h-12.3l-22.3-53.8v53.8h-18.2V92.5H496L519.7,151.1z"
		/>
	<path class="st0" d="M655.2,173.4h-18.2v-66.2h-31.5v66.2h-18.2V92.5h67.8V173.4z"/>
	<path class="st0" d="M694.1,118.3h17.8c6.6,0,12.4,1.1,17.3,3.4c4.9,2.3,8.7,5.5,11.2,9.6c2.6,4.1,3.8,8.9,3.8,14.4
		c0,8.3-2.9,15-8.8,20c-5.9,5-13.7,7.6-23.5,7.6h-36.1V92.5h18.2V118.3z M694.1,132.8v26.1h17.7c4.4,0,7.9-1.1,10.5-3.3
		c2.6-2.2,3.8-5.4,3.8-9.5c0-4.1-1.3-7.3-3.8-9.7c-2.5-2.4-5.9-3.6-10.2-3.6H694.1z"/>
	<path class="st0" d="M778.5,125h15.2c1.3-10.3,5.3-18.6,12-24.7c6.6-6.2,15-9.3,25.1-9.3c10.9,0,19.8,3.5,26.6,10.5
		c6.8,7,10.5,16.3,11,27.9l0.1,4.3c0,8-1.5,15.1-4.6,21.4c-3.1,6.3-7.4,11.1-13.2,14.6c-5.7,3.4-12.3,5.2-19.8,5.2
		c-10.5,0-19-3.2-25.7-9.7c-6.7-6.5-10.6-15-11.6-25.6h-15.1v33.8h-18.2V92.5h18.2V125z M811.5,133.8c0,8.3,1.7,14.8,5.2,19.5
		s8.2,7.1,14.3,7.1s10.9-2.4,14.3-7.2c3.4-4.8,5.1-11.8,5.1-21c0-8.3-1.8-14.8-5.3-19.5s-8.3-7.1-14.2-7.1c-5.9,0-10.6,2.4-14.1,7.1
		S811.5,124.4,811.5,133.8z"/>
	<path class="st0" d="M947.1,107h-26.2v66.4h-18.2V107h-25.9V92.5h70.3V107z"/>
	<path class="st0" d="M990,174.9c-11.5,0-20.8-3.6-28-10.9c-7.1-7.2-10.7-16.9-10.7-29v-2.2c0-8.1,1.6-15.3,4.7-21.6
		c3.1-6.4,7.5-11.3,13.1-14.8c5.6-3.5,11.9-5.3,18.8-5.3c11,0,19.5,3.5,25.5,10.5c6,7,9,17,9,29.8v7.3h-52.8
		c0.5,6.7,2.8,12,6.7,15.8c3.9,3.9,8.8,5.8,14.8,5.8c8.3,0,15.1-3.4,20.3-10.1l9.8,9.3c-3.2,4.8-7.6,8.6-13,11.2
		C1002.8,173.6,996.7,174.9,990,174.9z M987.8,105.6c-5,0-9,1.7-12.1,5.2c-3.1,3.5-5,8.3-5.9,14.6h34.6v-1.3
		c-0.4-6.1-2-10.7-4.9-13.8C996.8,107.2,992.8,105.6,987.8,105.6z"/>
	<path class="st0" d="M1107.3,133.8c0,12.5-2.8,22.5-8.5,29.9c-5.7,7.4-13.3,11.2-22.9,11.2c-8.9,0-16-2.9-21.3-8.7v38.3h-18.2V92.5
		h16.7l0.7,8.2c5.3-6.5,12.6-9.7,21.7-9.7c9.9,0,17.6,3.7,23.2,11c5.6,7.3,8.4,17.5,8.4,30.6V133.8z M1089.2,132.2
		c0-8.1-1.6-14.5-4.8-19.2c-3.2-4.7-7.8-7.1-13.8-7.1c-7.4,0-12.8,3.1-16,9.2V151c3.3,6.3,8.7,9.4,16.1,9.4c5.8,0,10.3-2.3,13.6-7
		C1087.6,148.7,1089.2,141.7,1089.2,132.2z"/>
	<path class="st1" d="M1210.5,173.4h-18.8V79.8h-47.9v93.5h-18.8V64.6h85.6V173.4z"/>
	<path class="st1" d="M1302.3,133.8c0,12.5-2.8,22.5-8.5,29.9c-5.7,7.4-13.3,11.2-22.9,11.2c-8.9,0-16-2.9-21.3-8.7v38.3h-18.2V92.5
		h16.7l0.7,8.2c5.3-6.5,12.6-9.7,21.7-9.7c9.9,0,17.6,3.7,23.2,11c5.6,7.3,8.4,17.5,8.4,30.6V133.8z M1284.2,132.2
		c0-8.1-1.6-14.5-4.8-19.2c-3.2-4.7-7.8-7.1-13.8-7.1c-7.4,0-12.8,3.1-16,9.2V151c3.3,6.3,8.7,9.4,16.1,9.4c5.8,0,10.3-2.3,13.6-7
		C1282.6,148.7,1284.2,141.7,1284.2,132.2z"/>
	<path class="st1" d="M1314.2,132.2c0-7.9,1.6-15.1,4.7-21.4c3.1-6.4,7.5-11.2,13.2-14.6c5.7-3.4,12.2-5.1,19.6-5.1
		c10.9,0,19.8,3.5,26.6,10.5c6.8,7,10.5,16.3,11,27.9l0.1,4.3c0,8-1.5,15.1-4.6,21.4c-3.1,6.3-7.4,11.1-13.2,14.6
		c-5.7,3.4-12.3,5.2-19.8,5.2c-11.4,0-20.5-3.8-27.4-11.4c-6.8-7.6-10.3-17.7-10.3-30.4V132.2z M1332.4,133.8
		c0,8.3,1.7,14.8,5.2,19.5c3.4,4.7,8.2,7.1,14.3,7.1c6.1,0,10.9-2.4,14.3-7.2c3.4-4.8,5.1-11.8,5.1-21c0-8.2-1.8-14.6-5.3-19.4
		c-3.5-4.8-8.3-7.2-14.3-7.2c-5.9,0-10.6,2.4-14.1,7.1C1334.1,117.4,1332.4,124.4,1332.4,133.8z"/>
	<path class="st1" d="M1401.7,134.1c0-13.2,2.6-23.7,7.8-31.4c5.2-7.7,12.5-11.6,21.8-11.6c3.8,0,7.2,0.7,10.3,2.1V58.6h18.1v34.8
		c3.2-1.6,6.9-2.4,11.2-2.4c9.3,0,16.5,3.8,21.8,11.5c5.3,7.7,7.9,18.7,7.9,33.1c0,12.1-2.6,21.7-7.9,28.7
		c-5.3,7-12.5,10.5-21.6,10.5c-4.1,0-7.9-0.7-11.4-2.2v31.8h-18.1v-31.5c-3,1.3-6.5,1.9-10.5,1.9c-8.7,0-15.7-3.2-20.9-9.7
		c-5.2-6.5-8-15.3-8.5-26.6L1401.7,134.1z M1419.8,135.7c0,8.1,1.3,14.2,4,18.4c2.7,4.2,6.7,6.3,12,6.3c2.2,0,4.2-0.2,5.8-0.7v-53.3
		c-1.7-0.5-3.6-0.7-5.7-0.7c-5.2,0-9.2,2.4-12,7.2C1421.2,117.6,1419.8,125.2,1419.8,135.7z M1482.4,134.1c0-9.1-1.4-16.1-4.3-21
		c-2.9-5-7-7.4-12.3-7.4c-2.2,0-4.3,0.3-6.1,1v53c1.6,0.5,3.7,0.7,6.3,0.7C1477,160.4,1482.4,151.6,1482.4,134.1z"/>
	<path class="st1" d="M1566.6,92.5h18.1v80.8h-18.1v-53.9l-31.7,53.9h-18.1V92.5h18.1v53.9L1566.6,92.5z"/>
</g>
<g>
	<path class="st2" d="M43.9,256.6H24.1c-7.8,0-14.2-6.4-14.2-14.2V72.1c0-7.8,6.4-14.2,14.2-14.2h19.7c7.8,0,14.2,6.4,14.2,14.2
		v170.3C58.1,250.2,51.7,256.6,43.9,256.6z M24.1,62.7c-5.2,0-9.4,4.2-9.4,9.4v170.3c0,5.2,4.2,9.4,9.4,9.4h19.7
		c5.2,0,9.4-4.2,9.4-9.4V72.1c0-5.2-4.2-9.4-9.4-9.4H24.1z"/>
	<path class="st2" d="M230.2,256.6h-29.4c-25.2,0-45.8-20.5-45.8-45.8V16.6c0-7.7,6.3-14.1,14.1-14.1h20.1c7.7,0,14.1,6.3,14.1,14.1
		V187c0,11.8,9.6,21.3,21.3,21.3h5.7c7.8,0,14.1,6.3,14.1,14.1v20C244.2,250.2,237.9,256.6,230.2,256.6z M169,7.3
		c-5.1,0-9.2,4.1-9.2,9.2v194.2c0,22.6,18.4,41,41,41h29.4c5.1,0,9.3-4.2,9.3-9.3v-20c0-5.1-4.2-9.3-9.3-9.3h-5.7
		c-14.4,0-26.1-11.7-26.1-26.1V16.6c0-5.1-4.1-9.2-9.2-9.2H169z"/>
	<path class="st2" d="M34,48.2c-13.3,0-24.1-10.8-24.1-24.1C9.9,10.8,20.7,0,34,0s24.1,10.8,24.1,24.1C58.1,37.4,47.3,48.2,34,48.2z
		 M34,4.8c-10.6,0-19.3,8.6-19.3,19.3c0,10.6,8.6,19.3,19.3,19.3s19.3-8.6,19.3-19.3C53.3,13.5,44.6,4.8,34,4.8z"/>
	<path class="st2" d="M236.9,97.1h-11.2c-7.7,0-14-6.3-14-14V71.9c0-7.7,6.3-14,14-14h11.2c7.7,0,14,6.3,14,14V83
		C250.9,90.8,244.6,97.1,236.9,97.1z M225.7,62.7c-5.1,0-9.2,4.1-9.2,9.2V83c0,5.1,4.1,9.2,9.2,9.2h11.2c5.1,0,9.2-4.1,9.2-9.2V71.9
		c0-5.1-4.1-9.2-9.2-9.2H225.7z"/>
	<g>
		<path class="st3" d="M145.7,82l-31.1,31.1c-10.9,10.9-28.6,10.9-39.5,0c-10.9-10.9-10.9-28.6,0-39.5l42.9-42.9
			c-12-6.8-27.4-5-37.6,5.1L9.2,107c-12.2,12.2-12.2,32.1,0,44.4L27,169.2c0,0,0,0,0,0l12.3-12.3c7.9-7.9,20.8-7.9,28.7,0
			c4.2,4.2,6.2,9.9,5.9,15.5c0.3,0,0.6,0,0.9,0c5.4,0,10.5,2.1,14.3,5.9c3.8,3.8,5.9,8.9,5.9,14.3c0,0.3,0,0.6,0,0.9
			c0.4,0,0.7,0,1.1,0c5.4,0,10.5,2.1,14.3,5.9c4.2,4.2,6.2,9.8,5.9,15.3c1.2-0.1,2.4,0,3.6,0.1c3.6,0.5,7.1,1.9,10,4.2
			c4.9,3.9,7.7,9.7,7.7,15.9c0,0.3,0,0.6,0,1c0.1-0.1,0.2-0.2,0.3-0.3l18-18c0,0,0,0,0,0l-23.4-23.4c-2-2-2-5.4,0-7.4
			c2-2,5.4-2,7.4,0l23.4,23.4c0,0,0,0,0,0l13.5-13.5c0,0,0,0,0,0l-23.4-23.4c-2.2-2.2-2-6,0.6-7.9c2.1-1.6,5.1-1.2,6.9,0.6
			l23.3,23.3c0,0,0,0,0,0l13.5-13.5c0,0,0,0,0,0l-23.4-23.4c-2-2-2-5.4,0-7.4c2-2,5.4-2,7.4,0l23.4,23.4c0,0,0,0,0,0l13.5-13.5
			c0,0,0,0,0,0L145.7,82z"/>
		<path class="st4" d="M82.5,81c-3.4,3.4-5.2,8-5.1,12.8c0.1,4,1.6,7.8,4.2,10.9c6.7,7.8,18.4,8.1,25.6,1l34.8-34.8
			c1-1,2.3-1.5,3.7-1.5c1.4,0,2.7,0.6,3.7,1.5l76.3,76.3c8.6-12.2,7.4-29.2-3.6-40.1l-82.9-82.9c-0.2,0.4-0.5,0.7-0.8,1L82.5,81z"/>
		<path class="st4" d="M102.8,220.8c3.5-3.5,4.1-9.2,1-13.1c-3.6-4.6-10.3-5-14.5-1.1c-0.1,0.1-0.2,0.2-0.3,0.3l-12.1,12.1
			l13.8,13.8c0,0,0,0,0,0L102.8,220.8z"/>
		<path class="st4" d="M81.9,199.2c2.2-2.4,3.1-5.8,2.3-9.1c-0.2-0.8-0.6-1.7-1-2.4c-2.1-3.5-5.9-5.3-9.8-4.8
			c-2.2,0.3-4.1,1.4-5.7,2.9l-12,12l13.8,13.8l12.3-12.3C81.8,199.3,81.9,199.3,81.9,199.2z"/>
		<path class="st4" d="M127,236.3c0.5-3.9-1.3-7.7-4.8-9.8c-0.8-0.5-1.6-0.8-2.4-1c-3.5-0.9-7,0.1-9.4,2.6l-12.3,12.3c0,0,0,0,0,0
			l13.8,13.8l12.1-12.1C125.6,240.5,126.7,238.5,127,236.3z"/>
		<path class="st4" d="M60.5,164.4c-3.8-3.8-10-3.8-13.8,0l-12.3,12.3c0,0,0,0,0,0l13.8,13.8l12.3-12.3
			C64.3,174.4,64.3,168.2,60.5,164.4z"/>
		<path class="st5" d="M139.8,186.9c-2-2-5.4-2-7.4,0c-2,2-2,5.4,0,7.4l23.4,23.4c0,0,0,0,0,0c1,1,2.4,1.5,3.7,1.5
			c1.3,0,2.6-0.5,3.6-1.4c2.1-2,2.1-5.4,0.2-7.5l0,0L139.8,186.9z"/>
		<path class="st5" d="M129.9,219.1c-2.9-2.3-6.3-3.7-10-4.2c-1.2-0.2-2.4-0.2-3.6-0.1c0.3-5.5-1.7-11.1-5.9-15.3
			c-3.8-3.8-8.9-5.9-14.3-5.9c-0.4,0-0.7,0-1.1,0c0-0.3,0-0.6,0-0.9c0-5.4-2.1-10.5-5.9-14.3c-3.8-3.8-8.9-5.9-14.3-5.9
			c-0.3,0-0.6,0-0.9,0c0.3-5.6-1.7-11.2-5.9-15.5c-7.9-7.9-20.8-7.9-28.7,0L27,169.2c0,0,0,0,0,0c-2,2-2,5.4,0,7.4c2,2,5.3,2,7.4,0
			c0,0,0,0,0,0l12.3-12.3c3.8-3.8,10-3.8,13.8,0c3.8,3.8,3.8,10,0,13.8l-12.3,12.3l0,0c-1.5,1.5-2,3.9-1.1,5.9
			c1.3,2.7,4.3,3.6,6.7,2.7c0.7-0.3,1.3-0.6,1.8-1.2l0,0l12-12c1.5-1.5,3.5-2.6,5.7-2.9c3.9-0.5,7.7,1.3,9.8,4.8
			c0.5,0.7,0.8,1.6,1,2.4c0.8,3.4,0,6.7-2.3,9.1c-0.1,0.1-0.1,0.1-0.2,0.2l-12.3,12.3l0,0c0,0,0,0,0,0l0,0c-1.7,1.7-2.2,4.5-0.8,6.6
			c1.1,1.6,2.7,2.4,4.4,2.4c1.3,0,2.7-0.5,3.7-1.5l0.1-0.1L89.1,207c0.1-0.1,0.2-0.2,0.3-0.3c4.1-3.9,10.8-3.6,14.5,1.1
			c3.1,3.9,2.5,9.6-1,13.1l-12.1,12.1c0,0,0,0,0,0c-1.2,1.2-1.7,2.7-1.5,4.2c0.2,1.8,1.2,3.5,3.2,4.4c1.9,0.9,4.2,0.3,5.7-1.2l0,0
			l12.1-12.1c1.5-1.5,3.5-2.6,5.7-2.9c3.9-0.5,7.7,1.3,9.8,4.8c0.5,0.8,0.8,1.6,1,2.4c0.9,3.5-0.1,7-2.6,9.4l-12.3,12.3l0,0
			c-2,2-2,5.4,0,7.4c1,1,2.4,1.5,3.7,1.5c1.3,0,2.7-0.5,3.7-1.5l12.3-12.3c3.6-3.6,5.7-8.3,5.9-13.4c0-0.3,0-0.6,0-1
			C137.6,228.8,134.8,223,129.9,219.1z"/>
		<path class="st5" d="M181.7,145c-2-2-5.4-2-7.4,0c-2,2-2,5.4,0,7.4l23.4,23.4c0,0,0,0,0,0c1,1,2.4,1.5,3.7,1.5
			c1.4,0,2.9-0.6,3.9-1.8c1.8-2,1.7-5.2-0.2-7.2l0,0L181.7,145z"/>
		<path class="st5" d="M225.6,147.1l-76.3-76.3c-1-1-2.3-1.5-3.7-1.5c-1.4,0-2.7,0.6-3.7,1.5l-34.8,34.8c-7.1,7.1-18.9,6.8-25.6-1
			c-2.6-3-4.1-6.9-4.2-10.9c-0.1-4.8,1.7-9.4,5.1-12.8l55.9-55.9c0.3-0.3,0.6-0.7,0.8-1c1.3-2.2,0.9-5.1-1.3-6.8
			c-2.1-1.7-5.2-1.4-7.1,0.5l-12.9,12.9L75,73.6c-10.9,10.9-10.9,28.6,0,39.5c10.9,10.9,28.6,10.9,39.5,0L145.7,82l72.9,72.9
			c0,0,0,0,0,0c1,1,2.4,1.5,3.7,1.5c1.6,0,3.1-0.7,4.2-2.1c1.5-2,1.2-5.2-0.6-6.9L225.6,147.1z"/>
		<path class="st5" d="M160.8,166.1c-1.9-1.9-4.8-2.2-6.9-0.6c-2.6,2-2.8,5.7-0.6,7.9l23.4,23.4c0,0,0,0,0,0c1,1,2.4,1.5,3.7,1.5
			c1.4,0,2.8-0.6,3.9-1.7c1.8-2,1.7-5,0-7l-0.2-0.2L160.8,166.1z"/>
	</g>
</g>
</svg>
