<?xml version="1.0" encoding="utf-8"?>
<!-- Generator: Adobe Illustrator 22.0.0, SVG Export Plug-In . SVG Version: 6.00 Build 0)  -->
<svg version="1.1" id="Capa_1" xmlns="http://www.w3.org/2000/svg" xmlns:xlink="http://www.w3.org/1999/xlink" x="0px" y="0px"
	 viewBox="0 0 59.9 38.9" style="enable-background:new 0 0 59.9 38.9;" xml:space="preserve">
<style type="text/css">
	.st0{fill:#141414;}
</style>
<g>
	<path class="st0" d="M59.4,1H0.5C0.2,1,0,0.8,0,0.5S0.2,0,0.5,0h58.9c0.3,0,0.5,0.2,0.5,0.5S59.7,1,59.4,1z"/>
	<path class="st0" d="M59.4,13.6H0.5c-0.3,0-0.5-0.2-0.5-0.5s0.2-0.5,0.5-0.5h58.9c0.3,0,0.5,0.2,0.5,0.5S59.7,13.6,59.4,13.6z"/>
	<path class="st0" d="M59.4,26.2H0.5C0.2,26.2,0,26,0,25.7s0.2-0.5,0.5-0.5h58.9c0.3,0,0.5,0.2,0.5,0.5S59.7,26.2,59.4,26.2z"/>
	<path class="st0" d="M59.4,38.9H0.5c-0.3,0-0.5-0.2-0.5-0.5s0.2-0.5,0.5-0.5h58.9c0.3,0,0.5,0.2,0.5,0.5S59.7,38.9,59.4,38.9z"/>
</g>
</svg>
