<?xml version="1.0" encoding="utf-8"?>
<!-- Generator: Adobe Illustrator 22.0.0, SVG Export Plug-In . SVG Version: 6.00 Build 0)  -->
<svg version="1.1" id="Слой_2_1_" xmlns="http://www.w3.org/2000/svg" xmlns:xlink="http://www.w3.org/1999/xlink" x="0px"
	 y="0px" viewBox="0 0 53.9 73.4" style="enable-background:new 0 0 53.9 73.4;" xml:space="preserve">
<style type="text/css">
	.st0{fill:#F54243;}
</style>
<title>V Podval</title>
<path class="st0" d="M27,0C12.1,0,0,12.1,0,27c0,3.8,0.8,7.5,2.4,11C9.1,52.8,22,68.5,25.8,72.9c0.3,0.3,0.7,0.5,1.1,0.5
	c0.4,0,0.9-0.2,1.1-0.5c3.8-4.4,16.7-20,23.5-34.8c1.6-3.5,2.4-7.2,2.3-11C54,12.2,41.9,0,27,0z M27,41.1c-7.7,0-14-6.3-14-14
	c0-7.7,6.3-14,14-14c7.7,0,14,6.2,14,13.9C41,34.7,34.8,41,27,41.1C27,41.1,27,41.1,27,41.1L27,41.1z"/>
</svg>
