<svg id="Слой_2" data-name="Слой 2" xmlns="http://www.w3.org/2000/svg" viewBox="0 0 73.47 73.4"><defs><style>.cls-1{fill:#fff;}</style></defs><title>V Podval</title><path class="cls-1" d="M55.82,48.57a5.13,5.13,0,0,0-7.77,0c-1.82,1.8-3.64,3.6-5.43,5.43a1.07,1.07,0,0,1-1.49.28c-1.18-.64-2.43-1.16-3.56-1.86A56.47,56.47,0,0,1,24,40a32.24,32.24,0,0,1-4.87-7.8,1.12,1.12,0,0,1,.28-1.44c1.81-1.75,3.59-3.56,5.37-5.36,2.49-2.5,2.49-5.44,0-8l-4.26-4.27c-1.47-1.47-2.92-3-4.4-4.4a5.18,5.18,0,0,0-7.78,0c-1.83,1.81-3.59,3.65-5.45,5.42a8.84,8.84,0,0,0-2.78,6A25.37,25.37,0,0,0,2,31.11,66.21,66.21,0,0,0,13.77,50.67,72.67,72.67,0,0,0,37.84,69.51a35,35,0,0,0,13.34,3.88,9.74,9.74,0,0,0,8.38-3.2c1.56-1.74,3.32-3.33,5-5,2.44-2.47,2.46-5.47,0-7.91Q60.21,52.91,55.82,48.57Z"/><path class="cls-1" d="M37.14,14.67l-.79,5.67A19.52,19.52,0,0,1,52.9,36.39l5.64-1a25.31,25.31,0,0,0-21.4-20.76Z"/><path class="cls-1" d="M37.89,0l-.8,5.67A36.26,36.26,0,0,1,67.78,35.42l5.64-1A42,42,0,0,0,37.89,0Z"/></svg>