<?xml version="1.0" encoding="utf-8"?>
<!-- Generator: Adobe Illustrator 22.0.0, SVG Export Plug-In . SVG Version: 6.00 Build 0)  -->
<svg version="1.1" id="Слой_2_1_" xmlns="http://www.w3.org/2000/svg" xmlns:xlink="http://www.w3.org/1999/xlink" x="0px"
	 y="0px" viewBox="0 0 73.5 73.4" style="enable-background:new 0 0 73.5 73.4;" xml:space="preserve">
<style type="text/css">
	.st0{fill:#F54243;}
</style>
<title>V Podval</title>
<path class="st0" d="M55.8,48.6c-1.9-2.1-5.1-2.4-7.2-0.5c-0.2,0.2-0.4,0.3-0.5,0.5c-1.8,1.8-3.6,3.6-5.4,5.4
	c-0.3,0.5-1,0.6-1.5,0.3c0,0,0,0,0,0c-1.2-0.6-2.4-1.2-3.6-1.9C32.4,49,27.8,44.9,24,40c-2-2.4-3.6-5-4.9-7.8
	c-0.3-0.5-0.2-1.1,0.3-1.4c1.8-1.8,3.6-3.6,5.4-5.4c2.5-2.5,2.5-5.4,0-8l-4.3-4.3c-1.5-1.5-2.9-3-4.4-4.4C14.2,6.6,11,6.4,8.8,8.3
	C8.6,8.4,8.5,8.6,8.3,8.7c-1.8,1.8-3.6,3.6-5.4,5.4c-1.7,1.6-2.7,3.7-2.8,6c-0.2,3.7,0.5,7.5,1.9,11c2.8,7.2,6.7,13.8,11.8,19.6
	c6.6,7.9,14.8,14.3,24.1,18.8c4.1,2.2,8.7,3.5,13.3,3.9c3.1,0.4,6.3-0.8,8.4-3.2c1.6-1.7,3.3-3.3,5-5c2.4-2.5,2.5-5.5,0-7.9
	C61.7,54.4,58.7,51.5,55.8,48.6z"/>
<path class="st0" d="M37.1,14.7l-0.8,5.7c8.4,1.2,15.1,7.7,16.6,16l5.6-1C56.7,24.6,48,16.2,37.1,14.7L37.1,14.7z"/>
<path class="st0" d="M37.9,0l-0.8,5.7c15.6,2.2,28,14.2,30.7,29.7l5.6-1C70.3,16.4,56,2.5,37.9,0z"/>
</svg>
